<?xml version="1.0" encoding="UTF-8" standalone="no"?>
<!DOCTYPE svg PUBLIC "-//W3C//DTD SVG 1.1//EN" "http://www.w3.org/Graphics/SVG/1.1/DTD/svg11.dtd">
<svg width="100%" height="100%" viewBox="0 0 500 500" version="1.1" xmlns="http://www.w3.org/2000/svg" xmlns:xlink="http://www.w3.org/1999/xlink" xml:space="preserve" xmlns:serif="http://www.serif.com/" style="fill-rule:evenodd;clip-rule:evenodd;stroke-linejoin:round;stroke-miterlimit:2;">
    <g transform="matrix(1.53201,0,0,1.54517,-791.205,-307.879)">
        <path d="M679.432,257.957C716.699,216.874 776.562,220.215 808.023,245.958C841.905,273.681 857.892,341.486 824.104,396.894C802.121,435.304 733.153,486.573 686.214,512.18C682.014,514.47 676.85,514.47 672.65,512.18C625.726,486.582 556.78,435.33 534.789,396.944C500.973,341.494 516.958,273.683 550.841,245.958C582.301,220.215 642.165,216.874 679.432,257.957ZM667.656,299.145C642.845,258.541 593.427,257.662 568.615,277.964C556.517,287.863 550.899,302.879 550.899,320.203C550.899,339.673 557.908,361.863 571.504,384.114C571.571,384.224 571.637,384.335 571.7,384.446C590.622,417.625 638.1,450.386 679.432,473.588C720.764,450.386 768.242,417.625 787.164,384.446C787.228,384.335 787.293,384.224 787.36,384.114C800.957,361.863 807.966,339.673 807.966,320.203C807.966,302.879 802.348,287.863 790.249,277.964C765.438,257.662 716.019,258.541 691.208,299.145C688.772,303.132 679.432,317.999 679.432,317.999C679.432,317.999 670.092,303.132 667.656,299.145Z"/>
    </g>
</svg>
