<?xml version="1.0" encoding="UTF-8" standalone="no"?>
<!DOCTYPE svg PUBLIC "-//W3C//DTD SVG 1.1//EN" "http://www.w3.org/Graphics/SVG/1.1/DTD/svg11.dtd">
<svg width="100%" height="100%" viewBox="0 0 500 500" version="1.1" xmlns="http://www.w3.org/2000/svg" xmlns:xlink="http://www.w3.org/1999/xlink" xml:space="preserve" xmlns:serif="http://www.serif.com/" style="fill-rule:evenodd;clip-rule:evenodd;stroke-linejoin:round;stroke-miterlimit:2;">
    <g transform="matrix(2.30148,0,0,2.30148,-1521.22,-1406.24)">
        <g transform="matrix(1,0,0,1,-276.155,-180.659)">
            <path d="M1040.43,855.562L1040.43,895.952L978.294,843.813L1040.43,791.674L1040.43,832.064L1131.67,832.064L1131.67,920.844L1106.73,920.844L1106.73,855.562L1040.43,855.562Z"/>
        </g>
        <g transform="matrix(-1,1.11022e-16,-1.11022e-16,-1,1815.36,1619.94)">
            <path d="M1040.43,855.562L1040.43,895.952L978.294,843.813L1040.43,791.674L1040.43,832.064L1131.67,832.064L1131.67,920.844L1106.73,920.844L1106.73,855.562L1040.43,855.562Z"/>
        </g>
    </g>
</svg>
